<svg width="25" height="25" viewBox="0 0 25 25" fill="none" xmlns="http://www.w3.org/2000/svg">
<path d="M11.9999 16.5925C12.0891 16.4715 12.1336 16.3887 12.2037 16.325C15.4265 13.0958 18.6494 9.87301 21.8722 6.64382C22.1843 6.33172 22.5282 6.17249 22.9677 6.29351C23.6683 6.49095 23.9358 7.33169 23.4836 7.90492C23.4199 7.98772 23.3435 8.05778 23.2734 8.12784C19.8022 11.5991 16.331 15.0703 12.8534 18.5479C12.2547 19.1466 11.726 19.1466 11.1273 18.5479C9.83435 17.2549 8.53503 15.962 7.24207 14.6627C6.64974 14.0703 6.85355 13.1468 7.62423 12.9239C8.03823 12.8029 8.38853 12.9239 8.68789 13.2296C9.7197 14.2678 10.7579 15.2996 11.7961 16.3378C11.8534 16.3951 11.9043 16.4715 11.9999 16.5925Z" fill="#D6D6D6"/>
<path d="M11.9807 13.3824C11.5604 13.3697 11.2483 13.1722 11.0699 12.7964C10.8916 12.4143 10.9489 12.0512 11.2037 11.72C11.2355 11.6755 11.2801 11.6372 11.3183 11.599C12.9807 9.93666 14.6494 8.26792 16.3118 6.60556C16.6749 6.24251 17.1143 6.15334 17.5283 6.35716C18.1398 6.65651 18.2926 7.45903 17.8213 7.96857C17.5729 8.23608 17.3054 8.49085 17.0506 8.74561C15.6303 10.166 14.2036 11.5927 12.7833 13.013C12.5603 13.2423 12.3056 13.3888 11.9807 13.3824Z" fill="#D6D6D6"/>
<path d="M7.40141 17.9809C7.3823 18.4076 7.18485 18.7261 6.79633 18.898C6.39507 19.0764 6.01292 19 5.68809 18.707C5.45879 18.4968 5.24861 18.2739 5.02569 18.0509C3.89197 16.9172 2.75187 15.7835 1.61815 14.637C1.04492 14.0574 1.26148 13.1339 2.02578 12.9174C2.43978 12.8027 2.79009 12.9237 3.08944 13.2294C4.24864 14.3886 5.40784 15.5478 6.56704 16.707C6.75175 16.8917 6.94282 17.0765 7.12116 17.2675C7.31224 17.465 7.40778 17.7006 7.40141 17.9809Z" fill="#D6D6D6"/>
</svg>
