<svg width="27" height="28" viewBox="0 0 27 28" fill="none" xmlns="http://www.w3.org/2000/svg">
<g clip-path="url(#clip0_17_620)">
<path d="M20.0012 24.966C19.9842 25.2328 19.9842 25.4997 19.9559 25.7612C19.8199 27.0302 18.749 27.9942 17.4231 27.9942C12.6748 28.0051 7.92652 28.0051 3.17823 27.9942C1.76734 27.9888 0.651094 26.8995 0.605764 25.5433C0.600098 25.3581 0.600098 25.1784 0.600098 24.9986C0.600098 18.8114 0.600098 12.6241 0.600098 6.43141C0.600098 5.11335 1.4217 4.09485 2.6966 3.84975C3.01958 3.78984 3.35955 3.80073 3.69952 3.7735C3.71085 3.48483 3.69952 3.19617 3.74485 2.92384C3.9545 1.64935 5.01975 0.816032 6.43064 0.810585C9.8927 0.816032 13.3491 0.832371 16.8112 0.799692C17.3721 0.794246 17.7404 0.957642 18.1144 1.32801C19.6443 2.8258 21.1912 4.30181 22.7437 5.77783C22.9873 6.00658 23.095 6.25167 23.0893 6.57847C23.078 7.44446 23.0837 8.31591 23.0837 9.19825C23.316 9.22003 23.5256 9.22548 23.7353 9.25816C24.9252 9.4379 25.6901 10.1351 26.0471 11.1971C26.4041 12.2429 26.0868 13.1742 25.2425 13.9204C24.6136 14.4759 23.9676 15.0151 23.3103 15.5435C23.1347 15.6851 23.078 15.8376 23.078 16.05C23.0837 18.1687 23.0837 20.2819 23.078 22.4007C23.0723 23.6751 22.2791 24.6501 21.0325 24.8897C20.7095 24.9551 20.3582 24.9387 20.0012 24.966ZM21.6728 7.13401C21.5368 7.13401 21.4291 7.13401 21.3215 7.13401C20.0126 7.13401 18.7093 7.13401 17.4004 7.13401C16.7998 7.13401 16.5165 6.86169 16.5165 6.28435C16.5165 5.0262 16.5165 3.7735 16.5165 2.51535C16.5165 2.41187 16.5165 2.31383 16.5165 2.18311C16.3805 2.18311 16.2729 2.18311 16.1652 2.18311C12.9411 2.18311 9.71705 2.18311 6.49297 2.18311C6.39664 2.18311 6.29465 2.18311 6.19833 2.18856C5.6657 2.23213 5.17274 2.64062 5.15008 3.13626C5.13308 3.52296 5.20674 3.91511 5.2294 4.30726C5.23507 4.43798 5.22374 4.56869 5.20674 4.69396C5.18974 4.84102 5.13308 4.98808 5.13308 5.13513C5.13308 10.8594 5.13308 16.5838 5.13308 22.3135C5.13308 23.1359 5.58071 23.5825 6.43631 23.5825C11.1053 23.588 15.7742 23.588 20.4432 23.5825C21.2252 23.5825 21.6671 23.1468 21.6728 22.4007C21.6784 20.6741 21.6728 18.9421 21.6728 17.2155C21.6728 17.1502 21.6558 17.0794 21.6445 16.9868C21.5538 17.063 21.4971 17.1121 21.4405 17.1611C20.2279 18.185 19.0267 19.2144 17.8028 20.222C17.6384 20.3582 17.3948 20.4671 17.1738 20.4835C16.0972 20.5652 15.015 20.6142 13.9384 20.6687C13.3151 20.7013 12.9921 20.3255 13.1225 19.7264C13.3378 18.746 13.5361 17.7656 13.7797 16.7907C13.8364 16.5674 13.9781 16.3332 14.1594 16.1807C16.3749 14.2853 18.5847 12.379 20.8512 10.5326C21.4745 10.0207 21.8088 9.51415 21.6954 8.71895C21.6161 8.20698 21.6728 7.68411 21.6728 7.13401ZM18.5847 24.9387C18.3977 24.9387 18.2674 24.9387 18.1427 24.9387C14.2784 24.9387 10.4197 24.9387 6.5553 24.9387C6.31165 24.9387 6.06234 24.9387 5.82436 24.8897C4.54946 24.6446 3.72219 23.6588 3.72219 22.3789C3.72219 16.7689 3.72219 11.1536 3.72219 5.54362C3.72219 5.4238 3.72219 5.30398 3.72219 5.1896C2.54361 5.00442 2.00532 5.65255 2.00532 6.56757C2.02799 12.7875 2.01665 19.002 2.01665 25.222C2.01665 25.3254 2.01099 25.4289 2.02232 25.5324C2.05632 26.0389 2.40196 26.4638 2.89492 26.589C3.0649 26.6326 3.24622 26.6381 3.42188 26.6381C8.01152 26.6381 12.6012 26.6381 17.1908 26.6381C17.2815 26.6381 17.3665 26.6381 17.4571 26.6326C17.9897 26.5999 18.4317 26.2459 18.528 25.7394C18.5734 25.4943 18.562 25.2383 18.5847 24.9387ZM14.6693 19.258C15.3833 19.2199 16.0576 19.1872 16.7318 19.1327C16.8678 19.1218 17.0151 19.0674 17.1171 18.9802C18.6527 17.6948 20.1769 16.4095 21.7068 15.1186C22.0468 14.8354 22.3811 14.5467 22.7267 14.2472C22.1147 13.5773 21.5198 12.9237 20.9192 12.2646C20.8625 12.3082 20.8115 12.3355 20.7662 12.3736C18.936 13.9204 17.1058 15.4672 15.2756 17.014C15.219 17.063 15.1396 17.1175 15.1226 17.1829C14.9753 17.8637 14.828 18.5445 14.6693 19.258ZM23.7863 13.3485C24.3529 12.9128 24.9365 12.5043 24.7495 11.7145C24.6192 11.1644 24.2509 10.7777 23.6673 10.6307C22.9137 10.4401 22.4774 10.9357 21.9844 11.3714C22.5907 12.0304 23.18 12.684 23.7863 13.3485ZM17.9501 3.17983C17.9501 4.04038 17.9501 4.89549 17.9501 5.75059C18.851 5.75059 19.7406 5.75059 20.6019 5.75059C19.7236 4.90093 18.8453 4.04583 17.9501 3.17983Z" fill="black"/>
<path d="M12.0401 13.316C10.7426 13.316 9.445 13.3214 8.14743 13.316C7.66014 13.316 7.35983 13.0328 7.37116 12.6134C7.38249 12.3084 7.59781 12.0524 7.90945 11.987C8.04544 11.9598 8.18143 11.9543 8.31742 11.9543C10.7822 11.9543 13.2527 11.9543 15.7175 11.9543C15.8365 11.9543 15.9555 11.9543 16.0688 11.9761C16.4371 12.036 16.6921 12.3302 16.6751 12.6678C16.6581 13.0164 16.3861 13.2887 16.0122 13.3051C15.6099 13.3214 15.2076 13.316 14.8052 13.316C13.8873 13.316 12.9637 13.316 12.0401 13.316Z" fill="black"/>
<path d="M10.567 8.02197C11.3602 8.02197 12.1592 8.02197 12.9524 8.02197C13.4624 8.02197 13.7854 8.2943 13.7797 8.70824C13.7741 9.11673 13.4567 9.37816 12.9638 9.38361C11.3546 9.38361 9.74537 9.38905 8.13049 9.38361C7.71686 9.38361 7.42221 9.14941 7.37122 8.80627C7.32022 8.4577 7.53554 8.13635 7.88118 8.04921C7.98317 8.02197 8.09649 8.02742 8.20415 8.02742C8.99742 8.02197 9.78503 8.02197 10.567 8.02197Z" fill="black"/>
</g>
<defs>
<clipPath id="clip0_17_620">
<rect width="25.6" height="27.2" fill="white" transform="translate(0.600098 0.799805)"/>
</clipPath>
</defs>
</svg>
